<svg xmlns="http://www.w3.org/2000/svg" xmlns:xlink="http://www.w3.org/1999/xlink" version="1.1" preserveAspectRatio="xMidYMid meet" width="512" height="512"><rect id="backgroundrect" width="100%" height="100%" x="0" y="0" fill="none" stroke="none" class="" style=""/><defs><path d="M404.19 210.02L394.69 205.02L400.42 195.93L389.68 196.35L390.1 185.62L381.02 191.35L376.01 181.84L371.01 191.35L361.92 185.62L362.34 196.35L351.61 195.93L357.34 205.02L347.84 210.02L357.34 215.02L351.61 224.11L362.34 223.69L361.92 234.42L371.01 228.69L376.01 238.2L381.02 228.69L390.1 234.42L389.68 223.69L400.42 224.11L394.69 215.02L404.19 210.02ZM361.92 210.02C361.92 202.24 368.23 195.93 376.01 195.93C383.8 195.93 390.1 202.24 390.1 210.02C390.1 217.8 383.8 224.11 376.01 224.11C368.23 224.11 361.92 217.8 361.92 210.02Z" id="e19saLEzcB"/><path d="M457.13 267.78C452.88 267.78 451.01 266.46 448.41 264.64C445.54 262.62 441.95 260.1 435.27 260.1C428.59 260.1 425.01 262.62 422.13 264.64C419.54 266.46 417.66 267.78 413.41 267.78C409.16 267.78 407.29 266.46 404.69 264.64C401.82 262.62 398.23 260.1 391.55 260.1C384.87 260.1 381.29 262.62 378.41 264.64C375.82 266.46 373.94 267.78 369.69 267.78C365.45 267.78 363.57 266.46 360.98 264.64C358.1 262.62 354.52 260.1 347.84 260.1C347.84 260.87 347.84 267.01 347.84 267.78C352.08 267.78 353.96 269.1 356.55 270.93C359.43 272.95 363.01 275.47 369.69 275.47C376.38 275.47 379.96 272.95 382.83 270.93C385.43 269.1 387.3 267.78 391.55 267.78C395.8 267.78 397.68 269.1 400.27 270.93C403.15 272.95 406.73 275.47 413.41 275.47C420.09 275.47 423.68 272.95 426.55 270.93C429.15 269.1 431.02 267.78 435.27 267.78C439.52 267.78 441.4 269.1 443.99 270.93C446.87 272.95 450.45 275.47 457.13 275.47C463.81 275.47 467.4 272.95 470.27 270.93C472.87 269.1 474.74 267.78 478.99 267.78C478.99 267.01 478.99 260.87 478.99 260.1C472.31 260.1 468.73 262.62 465.85 264.64C463.26 266.46 461.38 267.78 457.13 267.78Z" id="h3l6lkpn8t"/><path d="M454.72 154.02C454.85 153.69 455.45 152.03 456.54 149.05L449.31 146.42C448.23 149.41 447.62 151.07 447.5 151.4C426.62 145.87 404.53 157.13 397 177.81C396.89 178.09 396.38 179.51 395.45 182.07C398.12 182.57 399.61 182.85 399.91 182.9C407.11 184.24 414 186.75 420.38 190.35C420.44 190.39 420.74 190.56 421.28 190.86C421.9 190.86 422.24 190.85 422.31 190.85C422.44 190.85 422.57 190.85 422.7 190.85C426.09 190.85 429.44 191.28 432.68 192.12C430.89 197.04 416.56 236.4 414.77 241.32C414.32 241.31 413.87 241.3 413.41 241.3C401.54 241.3 389.88 243.25 378.76 247.08C371.75 249.5 365.04 252.64 358.71 256.45C361.63 257.66 363.79 259.18 365.39 260.31C367.64 261.89 367.88 262.05 369.69 262.05C371.51 262.05 371.75 261.89 373.99 260.31C377.15 258.09 382.44 254.37 391.55 254.37C400.67 254.37 405.95 258.09 409.11 260.31C411.36 261.89 411.6 262.05 413.41 262.05C415.23 262.05 415.47 261.89 417.71 260.31C420.87 258.09 426.16 254.37 435.27 254.37C444.39 254.37 449.67 258.09 452.83 260.31C455.08 261.89 455.32 262.05 457.13 262.05C458.95 262.05 459.19 261.89 461.43 260.31C463.04 259.18 465.2 257.66 468.12 256.45C461.79 252.64 455.08 249.5 448.07 247.08C439.9 244.26 431.43 242.47 422.81 241.72C424.52 237.02 438.19 199.44 439.9 194.75C443.03 196.24 445.98 198.15 448.66 200.44C448.71 200.49 448.97 200.71 449.44 201.11C450.05 201.23 450.39 201.29 450.46 201.3C457.66 202.64 464.55 205.15 470.93 208.75C471.2 208.9 472.51 209.65 474.88 210.99C475.82 208.43 476.33 207.01 476.44 206.72C480.3 196.11 479.8 184.64 475.02 174.4C470.8 165.34 463.67 158.22 454.72 154.02Z" id="alYesSk2K"/><linearGradient id="gradientd25yTotuFq" x1="0.5017458200454712" y1="0.7984088659286499" x2="0.4979218542575836" y2="0.8210672736167908"><stop style="stop-color: #339392;stop-opacity: 1" offset="0%"/><stop style="stop-color: #ffb64d;stop-opacity: 1" offset="100%"/></linearGradient></defs><g class="currentLayer" style=""><title>Layer 1</title><g id="svg_1" class=""><g id="svg_2"><g id="svg_3"><use xlink:href="#e19saLEzcB" opacity="1" fill="#e1a211" fill-opacity="1" id="svg_4" transform="matrix(3.8787308252712362,0,0,3.8787308252712362,-1355.1395700645376,-573.9834905345658) " y="3.0521488894480058" x="1.938940083384523"/></g><g id="svg_5"><use xlink:href="#h3l6lkpn8t" opacity="1" fill="#0096b0" fill-opacity="1" id="svg_6" transform="matrix(3.8787308252712362,0,0,3.8787308252712362,-1355.1395700645376,-573.9834905345658) " y="3.0521488894480058" x="1.938940083384523"/></g><g id="svg_7"><use xlink:href="#alYesSk2K" opacity="1" fill="url(#gradientd25yTotuFq)" id="svg_8" transform="matrix(3.8787308252712362,0,0,3.8787308252712362,-1355.1395700645376,-573.9834905345658) " y="3.0521488894480058" x="1.938940083384523"/></g></g></g></g></svg>