<?xml version="1.0" encoding="utf-8"?>
<svg viewBox="62.101 49.101 363.753 116.809" xmlns="http://www.w3.org/2000/svg">
  <defs>
    <linearGradient id="gradienta4jJQAa22R" gradientUnits="userSpaceOnUse" x1="123.65" y1="151.64" x2="123.26" y2="153.9">
      <stop style="stop-color: #339392;stop-opacity: 1" offset="0"/>
      <stop style="stop-color: #ffb64d;stop-opacity: 1" offset="1"/>
    </linearGradient>
  </defs>
  <g transform="matrix(1, 0, 0, 1, 1.491019, -20.713045)">
    <g>
      <g id="cshUM8ti6">
        <path d="M 148.96 522.142 L 148.96 498.092 C 148.96 492.865 150.33 489.018 153.07 486.552 C 155.81 484.085 159.35 482.852 163.69 482.852 C 168.177 482.852 171.667 483.998 174.16 486.292 C 176.653 488.585 177.9 491.308 177.9 494.462 C 177.9 495.848 177.457 496.542 176.57 496.542 C 175.677 496.542 175.23 496.095 175.23 495.202 C 175.183 494.122 174.987 493.098 174.64 492.132 C 174.293 491.172 173.74 490.148 172.98 489.062 C 172.213 487.975 171.027 487.112 169.42 486.472 C 167.82 485.832 165.887 485.512 163.62 485.512 C 155.627 485.512 151.63 489.705 151.63 498.092 L 151.63 522.142 C 151.63 530.528 155.723 534.722 163.91 534.722 C 165.783 534.722 167.413 534.488 168.8 534.022 C 170.18 533.548 171.227 533.028 171.94 532.462 C 172.653 531.895 173.27 531.095 173.79 530.062 C 174.31 529.022 174.643 528.195 174.79 527.582 C 174.937 526.962 175.083 526.112 175.23 525.032 C 175.33 524.138 175.777 523.692 176.57 523.692 C 177.457 523.692 177.9 524.408 177.9 525.842 C 177.9 528.902 176.617 531.592 174.05 533.912 C 171.483 536.225 167.957 537.382 163.47 537.382 C 159.177 537.382 155.687 536.148 153 533.682 C 150.307 531.215 148.96 527.368 148.96 522.142 ZM 199.658 522.142 L 199.658 484.102 C 199.658 483.268 200.101 482.852 200.988 482.852 C 201.874 482.852 202.318 483.268 202.318 484.102 L 202.318 522.142 C 202.318 526.335 203.328 529.482 205.348 531.582 C 207.374 533.675 210.288 534.722 214.088 534.722 C 217.881 534.722 220.801 533.675 222.848 531.582 C 224.901 529.482 225.928 526.335 225.928 522.142 L 225.928 484.102 C 225.928 483.268 226.371 482.852 227.258 482.852 C 228.144 482.852 228.588 483.268 228.588 484.102 L 228.588 522.142 C 228.588 527.422 227.268 531.282 224.628 533.722 C 221.988 536.162 218.474 537.382 214.088 537.382 C 209.694 537.382 206.191 536.162 203.578 533.722 C 200.964 531.282 199.658 527.422 199.658 522.142 ZM 253.153 535.612 L 253.153 484.102 C 253.153 483.362 253.597 482.945 254.483 482.852 L 266.843 482.852 C 271.383 482.852 275.06 483.962 277.873 486.182 C 280.687 488.402 282.093 492.002 282.093 496.982 C 282.093 505.368 277.947 510.055 269.653 511.042 L 281.863 534.792 C 282.017 535.092 282.093 535.365 282.093 535.612 C 282.093 536.005 281.97 536.325 281.723 536.572 C 281.477 536.818 281.153 536.942 280.753 536.942 C 280.56 536.942 280.377 536.892 280.203 536.792 C 280.03 536.692 279.857 536.518 279.683 536.272 C 279.51 536.025 279.373 535.828 279.273 535.682 L 278.983 534.872 C 278.783 534.478 278.66 534.282 278.613 534.282 L 266.773 511.192 L 255.823 511.192 L 255.823 535.612 C 255.823 536.498 255.377 536.942 254.483 536.942 C 253.597 536.942 253.153 536.498 253.153 535.612 Z M 255.823 485.512 L 255.823 508.522 L 266.843 508.522 C 270.743 508.522 273.813 507.585 276.053 505.712 C 278.3 503.838 279.423 500.928 279.423 496.982 C 279.423 493.035 278.3 490.135 276.053 488.282 C 273.813 486.435 270.743 485.512 266.843 485.512 L 255.823 485.512 ZM 297.855 485.102 C 297.608 484.835 297.485 484.528 297.485 484.182 C 297.485 483.835 297.608 483.525 297.855 483.252 C 298.101 482.985 298.421 482.852 298.815 482.852 L 327.745 482.852 C 328.631 482.852 329.075 483.268 329.075 484.102 C 329.075 485.042 328.631 485.512 327.745 485.512 L 314.645 485.512 L 314.645 535.612 C 314.645 536.498 314.201 536.942 313.315 536.942 C 312.428 536.942 311.985 536.498 311.985 535.612 L 311.985 485.512 L 298.815 485.512 C 298.421 485.512 298.101 485.375 297.855 485.102 ZM 340.475 535.762 C 340.475 535.562 340.498 535.412 340.545 535.312 L 356.605 483.442 C 356.805 482.748 357.248 482.402 357.935 482.402 C 358.628 482.402 359.098 482.748 359.345 483.442 L 375.255 535.312 C 375.255 535.365 375.268 535.428 375.295 535.502 C 375.315 535.575 375.325 535.635 375.325 535.682 C 375.325 536.028 375.178 536.325 374.885 536.572 C 374.591 536.818 374.245 536.942 373.845 536.942 C 373.258 536.942 372.865 536.622 372.665 535.982 L 368.895 523.842 L 346.835 523.842 L 343.135 535.982 C 342.941 536.622 342.498 536.942 341.805 536.942 C 340.918 536.942 340.475 536.548 340.475 535.762 Z M 357.935 488.032 L 347.655 521.182 L 368.075 521.182 L 357.935 488.032 Z" transform="matrix(1, 0, 0, 1, 46.07429885864258, -411.8066101074219)" style="fill: rgb(51, 147, 146); line-height: 74px; white-space: pre; alignment-baseline: before-edge;"/>
      </g>
      <g id="hRwRajhGk">
        <path d="M 148.22 534.352 L 148.22 485.442 C 148.22 484.648 148.567 484.018 149.26 483.552 C 149.953 483.085 150.767 482.852 151.7 482.852 L 177.68 482.852 C 178.513 482.852 179.14 483.185 179.56 483.852 C 179.98 484.512 180.19 485.312 180.19 486.252 C 180.19 487.238 179.97 488.078 179.53 488.772 C 179.083 489.458 178.467 489.802 177.68 489.802 L 156.07 489.802 L 156.07 506.752 L 167.54 506.752 C 168.327 506.752 168.943 507.058 169.39 507.672 C 169.83 508.292 170.05 509.045 170.05 509.932 C 170.05 510.718 169.84 511.422 169.42 512.042 C 169.007 512.655 168.38 512.962 167.54 512.962 L 156.07 512.962 L 156.07 534.352 C 156.07 535.192 155.687 535.832 154.92 536.272 C 154.153 536.718 153.23 536.942 152.15 536.942 C 151.11 536.942 150.197 536.718 149.41 536.272 C 148.617 535.832 148.22 535.192 148.22 534.352 ZM 182.408 534.352 L 182.408 485.362 C 182.408 484.522 182.791 483.895 183.558 483.482 C 184.324 483.062 185.251 482.852 186.338 482.852 C 187.418 482.852 188.341 483.062 189.108 483.482 C 189.874 483.895 190.258 484.522 190.258 485.362 L 190.258 529.982 L 209.498 529.982 C 210.238 529.982 210.818 530.328 211.238 531.022 C 211.658 531.715 211.868 532.528 211.868 533.462 C 211.868 534.402 211.658 535.215 211.238 535.902 C 210.818 536.595 210.238 536.942 209.498 536.942 L 185.888 536.942 C 184.954 536.942 184.141 536.708 183.448 536.242 C 182.754 535.768 182.408 535.138 182.408 534.352 ZM 213.347 520.882 L 213.347 499.352 C 213.347 493.678 214.851 489.508 217.857 486.842 C 220.864 484.182 224.884 482.852 229.917 482.852 C 234.951 482.852 238.984 484.182 242.017 486.842 C 245.051 489.508 246.567 493.678 246.567 499.352 L 246.567 520.882 C 246.567 526.555 245.051 530.725 242.017 533.392 C 238.984 536.052 234.951 537.382 229.917 537.382 C 224.884 537.382 220.864 536.052 217.857 533.392 C 214.851 530.725 213.347 526.555 213.347 520.882 Z M 221.187 499.352 L 221.187 520.882 C 221.187 527.248 224.097 530.432 229.917 530.432 C 232.731 530.432 234.901 529.642 236.427 528.062 C 237.961 526.482 238.727 524.088 238.727 520.882 L 238.727 499.352 C 238.727 496.145 237.961 493.752 236.427 492.172 C 234.901 490.592 232.731 489.802 229.917 489.802 C 224.097 489.802 221.187 492.985 221.187 499.352 ZM 252.781 534.352 L 252.781 485.362 C 252.781 484.675 253.027 484.085 253.521 483.592 C 254.014 483.098 254.631 482.852 255.371 482.852 L 269.431 482.852 C 280.777 482.852 286.451 487.882 286.451 497.942 C 286.451 502.135 285.514 505.428 283.641 507.822 C 281.767 510.215 279.227 511.805 276.021 512.592 L 286.381 532.062 C 286.581 532.402 286.681 532.772 286.681 533.172 C 286.681 534.158 286.174 535.068 285.161 535.902 C 284.147 536.742 283.074 537.162 281.941 537.162 C 280.661 537.162 279.624 536.398 278.831 534.872 L 268.031 513.702 L 260.551 513.702 L 260.551 534.352 C 260.551 535.138 260.171 535.768 259.411 536.242 C 258.644 536.708 257.717 536.942 256.631 536.942 C 255.597 536.942 254.697 536.708 253.931 536.242 C 253.164 535.768 252.781 535.138 252.781 534.352 Z M 260.551 489.802 L 260.551 507.412 L 269.431 507.412 C 275.551 507.412 278.611 504.478 278.611 498.612 C 278.611 492.738 275.551 489.802 269.431 489.802 L 260.551 489.802 ZM 291.186 534.352 L 291.186 485.362 C 291.186 484.522 291.57 483.895 292.336 483.482 C 293.103 483.062 294.03 482.852 295.116 482.852 C 296.196 482.852 297.12 483.062 297.886 483.482 C 298.653 483.895 299.036 484.522 299.036 485.362 L 299.036 534.352 C 299.036 535.138 298.653 535.768 297.886 536.242 C 297.12 536.708 296.196 536.942 295.116 536.942 C 294.076 536.942 293.163 536.708 292.376 536.242 C 291.583 535.768 291.186 535.138 291.186 534.352 ZM 305.838 534.352 L 305.838 485.362 C 305.838 484.675 306.122 484.085 306.688 483.592 C 307.262 483.098 307.992 482.852 308.878 482.852 L 323.308 482.852 C 328.242 482.852 332.175 484.158 335.108 486.772 C 338.042 489.385 339.508 493.505 339.508 499.132 L 339.508 499.722 C 339.508 505.342 337.992 509.472 334.958 512.112 C 331.925 514.752 327.892 516.072 322.858 516.072 L 313.688 516.072 L 313.688 534.352 C 313.688 535.138 313.305 535.768 312.538 536.242 C 311.772 536.708 310.848 536.942 309.768 536.942 C 308.728 536.942 307.815 536.708 307.028 536.242 C 306.235 535.768 305.838 535.138 305.838 534.352 Z M 313.688 489.802 L 313.688 509.862 L 322.858 509.862 C 325.672 509.862 327.845 509.058 329.378 507.452 C 330.905 505.852 331.668 503.448 331.668 500.242 L 331.668 499.352 C 331.668 496.145 330.905 493.752 329.378 492.172 C 327.845 490.592 325.672 489.802 322.858 489.802 L 313.688 489.802 ZM 336.556 533.682 C 336.556 533.388 336.579 533.168 336.626 533.022 L 351.356 485.072 C 351.943 483.292 353.593 482.402 356.306 482.402 C 359.073 482.402 360.753 483.292 361.346 485.072 L 375.996 533.022 C 376.096 533.315 376.146 533.535 376.146 533.682 C 376.146 534.575 375.613 535.342 374.546 535.982 C 373.486 536.622 372.366 536.942 371.186 536.942 C 369.753 536.942 368.863 536.398 368.516 535.312 L 365.486 524.802 L 347.206 524.802 L 344.176 535.312 C 343.829 536.398 342.916 536.942 341.436 536.942 C 340.249 536.942 339.139 536.622 338.106 535.982 C 337.073 535.342 336.556 534.575 336.556 533.682 Z M 356.306 493.132 L 348.906 518.512 L 363.706 518.512 L 356.306 493.132 Z" transform="matrix(1, 0, 0, 1, 46.96089553833008, -352.7121276855469)" style="fill: rgb(51, 147, 146); line-height: 74px; white-space: pre; alignment-baseline: before-edge;"/>
      </g>
      <g>
        <g>
          <path d="M110.8 126.82L102.59 122.49L107.54 114.64L98.26 115L98.63 105.73L90.77 110.68L86.45 102.47L82.13 110.68L74.28 105.73L74.64 115L65.36 114.64L70.32 122.49L62.1 126.82L70.32 131.14L65.36 138.99L74.64 138.63L74.28 147.9L82.13 142.95L86.45 151.17L90.77 142.95L98.63 147.9L98.26 138.63L107.54 138.99L102.59 131.14L110.8 126.82ZM74.28 126.82C74.28 120.09 79.73 114.64 86.45 114.64C93.17 114.64 98.63 120.09 98.63 126.82C98.63 133.54 93.17 138.99 86.45 138.99C79.73 138.99 74.28 133.54 74.28 126.82Z" transform="matrix(1, 0, 0, 1, 0, 0)" opacity="1" fill="#e1a211" fill-opacity="1"/>
        </g>
        <g>
          <path d="M156.55 176.73C152.88 176.73 151.26 175.59 149.01 174.01C146.53 172.26 143.43 170.09 137.66 170.09C131.89 170.09 128.79 172.26 126.3 174.01C124.06 175.59 122.44 176.73 118.77 176.73C115.1 176.73 113.48 175.59 111.23 174.01C108.75 172.26 105.65 170.09 99.88 170.09C94.11 170.09 91.01 172.26 88.52 174.01C86.28 175.59 84.66 176.73 80.99 176.73C77.32 176.73 75.7 175.59 73.46 174.01C70.97 172.26 67.87 170.09 62.1 170.09C62.1 170.75 62.1 176.06 62.1 176.73C65.77 176.73 67.39 177.87 69.64 179.45C72.12 181.19 75.22 183.37 80.99 183.37C86.76 183.37 89.86 181.19 92.34 179.45C94.59 177.87 96.21 176.73 99.88 176.73C103.55 176.73 105.17 177.87 107.41 179.45C109.9 181.19 113 183.37 118.77 183.37C124.54 183.37 127.64 181.19 130.12 179.45C132.37 177.87 133.99 176.73 137.66 176.73C141.33 176.73 142.95 177.87 145.19 179.45C147.68 181.19 150.78 183.37 156.55 183.37C162.32 183.37 165.42 181.19 167.9 179.45C170.15 177.87 171.77 176.73 175.44 176.73C175.44 176.06 175.44 170.75 175.44 170.09C169.67 170.09 166.57 172.26 164.08 174.01C161.84 175.59 160.22 176.73 156.55 176.73Z" transform="matrix(1, 0, 0, 1, 0, 0)" opacity="1" fill="#0096b0" fill-opacity="1"/>
        </g>
        <g>
          <path d="M154.47 78.43C154.57 78.14 155.09 76.71 156.03 74.13L149.79 71.86C148.85 74.44 148.33 75.87 148.23 76.16C130.18 71.38 111.09 81.11 104.58 98.98C104.49 99.23 104.05 100.45 103.24 102.66C105.55 103.09 106.84 103.33 107.1 103.38C113.32 104.54 119.28 106.71 124.79 109.82C124.84 109.85 125.1 110 125.57 110.26C126.1 110.25 126.4 110.25 126.46 110.25C126.57 110.25 126.68 110.25 126.79 110.25C129.72 110.25 132.62 110.62 135.42 111.35C133.87 115.6 121.49 149.61 119.94 153.86C119.55 153.85 119.16 153.85 118.77 153.85C108.51 153.85 98.43 155.53 88.82 158.84C82.76 160.93 76.97 163.64 71.49 166.93C74.02 167.99 75.89 169.29 77.27 170.27C79.22 171.64 79.42 171.78 80.99 171.78C82.56 171.78 82.76 171.64 84.7 170.27C87.44 168.35 92.01 165.14 99.88 165.14C107.75 165.14 112.32 168.35 115.05 170.27C116.99 171.64 117.2 171.78 118.77 171.78C120.34 171.78 120.54 171.64 122.48 170.27C125.21 168.35 129.78 165.14 137.66 165.14C145.53 165.14 150.1 168.35 152.83 170.27C154.77 171.64 154.98 171.78 156.55 171.78C158.12 171.78 158.32 171.64 160.26 170.27C161.65 169.29 163.52 167.99 166.05 166.93C160.57 163.64 154.77 160.93 148.72 158.84C141.65 156.41 134.34 154.86 126.89 154.2C128.36 150.15 140.18 117.68 141.66 113.62C144.37 114.91 146.91 116.56 149.23 118.54C149.27 118.58 149.5 118.77 149.9 119.12C150.43 119.22 150.72 119.27 150.78 119.28C157.01 120.44 162.96 122.61 168.47 125.72C168.7 125.85 169.84 126.49 171.89 127.65C172.69 125.44 173.14 124.21 173.23 123.97C176.56 114.8 176.13 104.88 172.01 96.04C168.36 88.21 162.2 82.05 154.47 78.43Z" transform="matrix(1, 0, 0, 1, 0, 0)" opacity="1" fill="url(#gradienta4jJQAa22R)"/>
        </g>
      </g>
    </g>
  </g>
</svg>