<svg width="565" height="260" xmlns="http://www.w3.org/2000/svg">

 <g>
  <title>background</title>
  <rect fill="#ffffff" id="canvas_background" height="262" width="567" y="-1" x="-1"/>
 </g>
 <g>
  <title>Layer 1</title>
  <g id="svg_3"/>
  <g id="svg_4"/>
  <g id="svg_5"/>
  <g id="svg_6"/>
  <g id="svg_7"/>
  <g id="svg_8"/>
  <g id="svg_9"/>
  <g id="svg_10"/>
  <g id="svg_11"/>
  <g id="svg_12"/>
  <g id="svg_13"/>
  <g id="svg_14"/>
  <g id="svg_15"/>
  <g id="svg_16"/>
  <g id="svg_17"/>
  <g stroke="null" id="svg_49">
   <g stroke="null" transform="matrix(0.30457940111337783,0,0,0.30457940111337783,-1125.894239115344,-567.2064156407656) " id="svg_25">
    <g stroke="null" id="svg_26">
     <path stroke="null" fill="#ffbf00" id="svg_27" d="m4513.1786,2173.21204l37.106,-19.528l-37.106,-19.529l22.37,-35.466l-41.899,1.64l1.64,-41.899l-35.466,22.37l-19.529,-37.106l-19.529,37.106l-35.466,-22.37l1.64,41.899l-41.899,-1.64l22.37,35.466l-37.106,19.529l37.106,19.529l-22.37,35.466l41.899,-1.64l-1.64,41.898l35.466,-22.37l19.529,37.107l19.529,-37.106l35.466,22.369l-1.64,-41.899l41.899,1.64l-22.37,-35.466zm-72.884,35.467c-30.373,0 -54.995,-24.623 -54.995,-54.995c0,-30.372 24.622,-54.995 54.995,-54.995c30.373,0 54.995,24.623 54.995,54.995c0,30.372 -24.622,54.995 -54.995,54.995z"/>
    </g>
   </g>
   <g stroke="null" transform="matrix(0.30457940111337783,0,0,0.30457940111337783,-1125.894239115344,-567.2064156407656) " id="svg_28">
    <g stroke="null" id="svg_29">
     <path stroke="null" fill="#3f7b70" id="svg_30" d="m4790.9656,2371.39304c-10.13,7.123 -17.449,12.27 -34.037,12.27s-23.908,-5.147 -34.039,-12.27c-11.233,-7.898 -25.214,-17.727 -51.29,-17.727c-26.077,0 -40.057,9.83 -51.29,17.727c-10.13,7.123 -17.449,12.27 -34.035,12.27c-16.586,0 -23.905,-5.146 -34.035,-12.27c-11.233,-7.897 -25.213,-17.727 -51.288,-17.727c-26.077,0 -40.056,9.83 -51.289,17.727c-10.13,7.123 -17.449,12.27 -34.035,12.27c-16.586,0 -23.904,-5.146 -34.034,-12.27c-11.233,-7.898 -25.212,-17.728 -51.289,-17.728l0,29.997c16.585,0 23.905,5.146 34.035,12.27c11.233,7.897 25.213,17.727 51.288,17.727c26.077,0 40.056,-9.83 51.289,-17.727c10.13,-7.123 17.449,-12.27 34.035,-12.27s23.904,5.146 34.034,12.27c11.233,7.897 25.213,17.727 51.288,17.727s40.056,-9.829 51.289,-17.727c10.13,-7.123 17.449,-12.27 34.036,-12.27c16.587,0 23.907,5.146 34.038,12.27c11.233,7.898 25.214,17.727 51.291,17.727c26.077,0 40.057,-9.829 51.29,-17.727c10.132,-7.122 17.451,-12.27 34.039,-12.27l0,-29.997c-26.077,0 -40.057,9.829 -51.291,17.728z"/>
    </g>
   </g>
   <g stroke="null" transform="matrix(0.30457940111337783,0,0,0.30457940111337783,-1125.894239115344,-567.2064156407656) " id="svg_31">
    <g stroke="null" id="svg_32">
     <path stroke="null" fill="#3f7b70" id="svg_33" d="m4826.7606,2011.54404c-16.495,-35.373 -44.321,-63.173 -79.237,-79.541l7.072,-19.429l-28.19,-10.262l-7.075,19.439c-81.505,-21.572 -167.748,22.355 -197.133,103.09l-6.055,16.637l17.406,3.238c28.129,5.233 55.021,15.021 79.93,29.093l3.502,1.978l4.021,-0.039c0.506,-0.005 1.012,-0.007 1.517,-0.007c13.24,0 26.323,1.693 38.96,4.957l-69.894,192.03c-1.768,-0.022 -3.534,-0.054 -5.304,-0.054c-46.345,0 -91.86,7.589 -135.281,22.556c-27.355,9.429 -53.538,21.68 -78.266,36.555c11.425,4.753 19.843,10.664 26.11,15.07c8.771,6.168 9.688,6.812 16.783,6.812c7.096,0 8.012,-0.645 16.78,-6.81c12.338,-8.675 32.98,-23.187 68.544,-23.187c35.564,0 56.206,14.514 68.539,23.185c8.771,6.168 9.688,6.812 16.783,6.812c7.096,0 8.012,-0.645 16.779,-6.81c12.339,-8.674 32.981,-23.187 68.546,-23.187c35.569,0 56.211,14.515 68.545,23.186c8.77,6.166 9.687,6.811 16.784,6.811c7.097,0 8.014,-0.645 16.781,-6.81c6.269,-4.408 14.69,-10.32 26.117,-15.074c-24.728,-14.875 -50.91,-27.126 -78.266,-36.555c-31.909,-10.999 -64.951,-17.996 -98.62,-20.942l66.728,-183.331c12.229,5.838 23.736,13.286 34.189,22.231l3.056,2.615l3.954,0.735c28.129,5.233 55.021,15.021 79.931,29.093l15.416,8.708l6.056,-16.638c15.072,-41.412 13.117,-86.215 -5.508,-126.155z"/>
    </g>
   </g>
   <g stroke="null" transform="matrix(0.30457940111337783,0,0,0.30457940111337783,-1125.894239115344,-567.2064156407656) " id="svg_34"/>
   <g stroke="null" transform="matrix(0.30457940111337783,0,0,0.30457940111337783,-1125.894239115344,-567.2064156407656) " id="svg_35"/>
   <g stroke="null" transform="matrix(0.30457940111337783,0,0,0.30457940111337783,-1125.894239115344,-567.2064156407656) " id="svg_36"/>
   <g stroke="null" transform="matrix(0.30457940111337783,0,0,0.30457940111337783,-1125.894239115344,-567.2064156407656) " id="svg_37"/>
   <g stroke="null" transform="matrix(0.30457940111337783,0,0,0.30457940111337783,-1125.894239115344,-567.2064156407656) " id="svg_38"/>
   <g stroke="null" transform="matrix(0.30457940111337783,0,0,0.30457940111337783,-1125.894239115344,-567.2064156407656) " id="svg_39"/>
   <g stroke="null" transform="matrix(0.30457940111337783,0,0,0.30457940111337783,-1125.894239115344,-567.2064156407656) " id="svg_40"/>
   <g stroke="null" transform="matrix(0.30457940111337783,0,0,0.30457940111337783,-1125.894239115344,-567.2064156407656) " id="svg_41"/>
   <g stroke="null" transform="matrix(0.30457940111337783,0,0,0.30457940111337783,-1125.894239115344,-567.2064156407656) " id="svg_42"/>
   <g stroke="null" transform="matrix(0.30457940111337783,0,0,0.30457940111337783,-1125.894239115344,-567.2064156407656) " id="svg_43"/>
   <g stroke="null" transform="matrix(0.30457940111337783,0,0,0.30457940111337783,-1125.894239115344,-567.2064156407656) " id="svg_44"/>
   <g stroke="null" transform="matrix(0.30457940111337783,0,0,0.30457940111337783,-1125.894239115344,-567.2064156407656) " id="svg_45"/>
   <g stroke="null" transform="matrix(0.30457940111337783,0,0,0.30457940111337783,-1125.894239115344,-567.2064156407656) " id="svg_46"/>
   <g stroke="null" transform="matrix(0.30457940111337783,0,0,0.30457940111337783,-1125.894239115344,-567.2064156407656) " id="svg_47"/>
   <g stroke="null" transform="matrix(0.30457940111337783,0,0,0.30457940111337783,-1125.894239115344,-567.2064156407656) " id="svg_48"/>
  </g>
  <g id="svg_50">
   <text xml:space="preserve" text-anchor="start" font-family="Helvetica, Arial, sans-serif" font-size="69" id="svg_18" y="242.5" x="9.44531" stroke-width="0" stroke="#000" fill="#113c4a">CURTA</text>
   <text font-weight="bold" xml:space="preserve" text-anchor="start" font-family="Helvetica, Arial, sans-serif" font-size="69" id="svg_19" y="242.5" x="254.25781" stroke-width="0" stroke="#000" fill="#113c4a">FLORIPA</text>
  </g>
 </g>
</svg>